<svg width="243" height="48" xmlns="http://www.w3.org/2000/svg">
 <!-- Generator: Sketch 40.3 (33839) - http://www.bohemiancoding.com/sketch -->

 <title>logo_l</title>
 <desc>Created with Sketch.</desc>
 <g>
  <title>background</title>
  <rect x="-1" y="-1" width="245" height="50" id="canvas_background" fill="none"/>
 </g>
 <g>
  <title>Layer 1</title>
  <path d="m12.171,23.89c-2.94,6.664 -7.889,14.063 -12.299,18.473c2.009,1.127 5.586,3.479 7.252,4.851c4.165,-5.096 9.555,-13.377 13.132,-20.727l-8.085,-2.597zm13.475,3.038c3.92,6.37 9.555,14.847 11.956,20.041l7.644,-4.165c-2.842,-5.194 -8.869,-13.328 -12.691,-19.208l-6.909,3.332zm-2.401,-13.867l5.978,-2.205c-1.078,-2.646 -3.332,-6.762 -4.9,-9.751l-7.546,2.548c1.372,2.94 3.185,6.762 4.116,9.408l-20.335,0l0,7.448l45.031,0l0,-7.448l-22.344,0zm53.655,18.081l0,-3.381l7.546,0l0,3.381l-7.546,0zm-6.762,-3.381l0,3.381l-7.35,0c0.147,-1.127 0.245,-2.303 0.294,-3.381l7.056,0zm3.087,-18.277c-0.539,0.98 -1.176,1.96 -1.764,2.842l-8.722,0c0.784,-0.931 1.47,-1.862 2.156,-2.842l8.33,0zm-10.094,9.016l7.007,0l0,3.332l-7.007,0l0,-3.332zm21.315,3.332l-7.546,0l0,-3.332l7.546,0l0,3.332zm7.056,-9.506l-12.299,0c1.421,-1.96 2.744,-3.969 3.773,-5.684l-4.851,-3.234l-1.127,0.294l-8.526,0c0.245,-0.49 0.539,-1.029 0.784,-1.519l-7.595,-1.372c-2.205,4.851 -6.174,10.241 -12.299,14.259c1.617,1.078 3.969,3.577 5.047,5.243c0.637,-0.49 1.225,-0.931 1.813,-1.421l0,6.468c0,5.88 -0.588,12.887 -7.693,17.591c1.421,0.98 4.067,3.626 5.047,4.998c4.116,-2.744 6.517,-6.615 7.889,-10.731l22.981,0l0,2.646c0,0.931 -0.392,1.225 -1.47,1.225c-1.078,0 -5.292,0.049 -8.379,-0.147c1.029,1.764 2.303,4.851 2.646,6.811c4.851,0 8.33,-0.098 10.878,-1.176c2.499,-1.078 3.381,-2.94 3.381,-6.566l0,-27.685zm31.36,2.352l-4.116,0l0,-4.312l4.116,0l0,4.312zm11.662,6.517l0,5.635c-0.196,0.049 -0.441,0.098 -0.833,0.098l-2.744,0c-1.225,0 -1.372,-0.147 -1.372,-1.96l0,-3.773l4.949,0zm-26.607,17.101l0,-6.223c0.784,0.882 1.47,1.813 1.862,2.45c6.762,-2.891 8.624,-8.232 8.918,-13.328l4.165,0l0,3.822c0,6.517 1.176,8.526 6.909,8.526l4.655,0l0.098,0l0,4.753l-26.607,0zm4.459,-17.101c-0.245,2.695 -1.127,5.194 -4.459,7.203l0,-7.203l4.459,0zm30.821,-10.829l0,-6.86l-44.59,0l0,6.86l13.818,0l0,4.312l-11.417,0l0,32.781l6.909,0l0,-2.646l26.607,0l0,2.646l7.252,0l0,-32.781l-12.201,0l0,-4.312l13.622,0zm18.13,1.323c-1.078,1.127 -2.303,2.156 -3.724,3.136c-0.833,-0.686 -1.96,-1.519 -2.989,-2.107c0.343,-0.343 0.686,-0.686 1.029,-1.029l5.684,0zm4.067,-3.92l-1.029,0.245l-2.352,0l0,-1.127l7.693,0l0,-4.067l-7.693,0l0,-1.715l-5.929,0l0,6.468l-2.891,-0.539c-1.421,1.96 -3.773,4.116 -6.958,5.733c1.127,0.735 2.793,2.499 3.577,3.675c0.49,-0.294 0.931,-0.588 1.372,-0.931c0.735,0.539 1.568,1.176 2.254,1.764c-1.96,0.931 -4.018,1.715 -6.027,2.254c1.127,1.029 2.646,2.989 3.381,4.263c7.546,-2.499 14.896,-7.007 18.473,-13.965l-3.871,-2.058zm-6.37,19.6c1.666,-0.735 3.283,-1.568 4.851,-2.45l0,1.813l12.152,0l0,-1.666c1.617,0.833 3.332,1.568 5.047,2.303l-22.05,0zm24.157,11.172c-0.539,0.49 -1.078,0.931 -1.617,1.372c-1.323,-0.49 -2.695,-0.931 -4.067,-1.372l5.684,0zm-20.286,2.548l0,-2.548l7.595,0l-1.666,1.911l0.49,0.147l-6.419,0.49zm0,-6.958l14.798,0l0,0.931l-14.798,0l0,-0.931zm0,-3.234l14.798,0l0,0.833l-14.798,0l0,-0.833zm3.332,-7.399c1.127,-0.686 2.205,-1.47 3.234,-2.254c1.127,0.784 2.352,1.519 3.626,2.254l-6.86,0zm16.17,-16.219c-0.686,0.882 -1.47,1.715 -2.401,2.499c-1.862,-0.931 -3.773,-1.764 -5.488,-2.499l7.889,0zm9.163,9.408c-1.568,-1.274 -3.773,-2.695 -6.174,-4.067c2.254,-2.352 4.018,-5.243 5.194,-8.673l-3.871,-1.568l-1.078,0.196l-14.651,0l0,4.704l3.185,0l-3.822,3.724c1.421,0.637 2.891,1.323 4.41,2.107c-0.98,0.441 -2.009,0.833 -3.038,1.127c0.343,0.343 0.686,0.784 1.078,1.225l-3.136,-1.617c-4.949,5.537 -14.406,9.653 -23.03,11.858c1.372,1.372 2.891,3.479 3.626,4.998c1.96,-0.637 3.92,-1.323 5.88,-2.107l0,11.074c0,1.911 -0.735,2.695 -1.617,3.136c0.784,0.931 1.764,3.381 2.009,4.753c1.323,-0.588 3.381,-0.98 15.19,-2.107c-0.098,-1.029 -0.049,-2.695 0.049,-4.116c5.831,1.862 12.495,4.557 16.023,6.664l3.332,-4.018c-1.225,-0.686 -2.793,-1.421 -4.508,-2.107c1.421,-1.029 2.891,-2.107 4.312,-3.185l-4.851,-3.038c-0.49,0.539 -1.029,1.127 -1.666,1.715l0,-8.673c1.862,0.686 3.675,1.225 5.39,1.715c0.833,-1.47 2.597,-3.822 3.871,-4.998c-6.958,-1.47 -15.288,-4.312 -20.433,-7.301c0.245,-0.294 0.539,-0.588 0.833,-0.882c0.441,0.686 0.833,1.323 1.078,1.862c1.96,-0.735 3.773,-1.617 5.488,-2.646c2.695,1.617 5.047,3.234 6.615,4.606l4.312,-4.361zm20.335,9.065l0,-1.274l2.548,0l0,1.176l-2.548,0.098zm2.548,-10.241l0,1.127l-2.548,0l0,-1.127l2.548,0zm-2.548,4.41l2.548,0l0,1.274l-2.548,0l0,-1.274zm7.693,-4.41l1.568,0l0,-4.263l-15.484,0l0,4.263l1.372,0l0,10.437l-2.009,0.049l0.343,4.753c2.744,-0.196 5.831,-0.392 9.065,-0.588l0,4.41l-2.107,-3.969c-2.107,0.539 -5.243,0.931 -7.987,1.078c0.49,-4.508 0.588,-8.918 0.588,-12.495l0,-9.604l36.652,0l0,-5.39l-17.934,0c-0.637,-1.323 -1.568,-2.744 -2.499,-3.871l-6.125,2.352c0.343,0.49 0.686,0.98 0.98,1.519l-17.444,0l0,15.043c0,7.252 -0.196,17.64 -3.381,24.647c1.421,0.637 4.263,2.695 5.39,3.871c1.96,-4.067 3.038,-9.457 3.675,-14.798c0.294,0.882 0.539,1.862 0.637,2.548c0.735,0.049 1.568,0.049 2.401,0.049l0,1.274l-2.254,0l0,3.626l2.254,0l0,1.666l-3.675,0.196l0.441,4.263c3.038,-0.245 6.321,-0.539 9.751,-0.882l-0.098,-3.969l-2.156,0.147l0,-1.421l2.107,0l0,-3.626l-2.107,0l0,-1.617c1.029,-0.098 2.009,-0.245 2.891,-0.441l0,12.838l5.145,0l0,-2.891l3.332,1.519c1.372,-2.107 1.911,-5.439 2.205,-8.575l-4.361,-1.225c-0.147,2.009 -0.539,4.067 -1.176,5.831l0,-26.754zm15.582,6.419l1.323,0l0,2.401l-1.323,0l0,-2.401zm-3.479,2.401l-1.274,0l0,-2.401l1.274,0l0,2.401zm-4.753,0l-1.225,0l0,-2.401l1.225,0l0,2.401zm14.014,-7.595l0,-4.704l-7.056,0l0,-1.764l-5.929,0l0,1.764l-6.468,0l0,4.704l6.468,0l0,1.421l-6.272,0l0,9.996l19.012,0l0,-9.996l-6.811,0l0,-1.421l7.056,0zm-10.241,26.313c-0.588,0 -0.686,-0.098 -0.686,-1.127l0,-3.969c0.588,0.784 1.078,1.568 1.372,2.205l3.626,-2.156c0.539,1.127 1.078,2.352 1.519,3.577c-1.274,-0.343 -2.891,-0.98 -3.626,-1.617c-0.098,2.744 -0.294,3.087 -0.931,3.087l-1.274,0zm11.515,0.784c-0.343,-2.352 -1.813,-5.831 -3.381,-8.477l-4.018,1.421c-0.588,-0.882 -1.47,-1.911 -2.352,-2.842l9.555,0l0,-4.606l-21.217,0l0,4.606l7.889,0l-1.421,0.833c0.588,0.539 1.176,1.176 1.715,1.862l-3.822,0l0,5.292c0,4.116 0.784,5.439 4.704,5.439l2.744,0c2.548,0 3.773,-0.98 4.361,-4.459c0.294,0.98 0.49,1.862 0.588,2.646l4.655,-1.715z" id="logo_l" fill="#3d1101"/>
 </g>
</svg>